<svg width="60" height="60" viewBox="0 0 60 60" fill="none" xmlns="http://www.w3.org/2000/svg">
<path d="M30 17.5C33.3152 17.5 36.4946 18.817 38.8388 21.1612C41.183 23.5054 42.5 26.6848 42.5 30C42.5 33.3152 41.183 36.4946 38.8388 38.8388C36.4946 41.183 33.3152 42.5 30 42.5C26.6848 42.5 23.5054 41.183 21.1612 38.8388C18.817 36.4946 17.5 33.3152 17.5 30C17.5 26.6848 18.817 23.5054 21.1612 21.1612C23.5054 18.817 26.6848 17.5 30 17.5M30 22.5C28.0109 22.5 26.1032 23.2902 24.6967 24.6967C23.2902 26.1032 22.5 28.0109 22.5 30C22.5 31.9891 23.2902 33.8968 24.6967 35.3033C26.1032 36.7098 28.0109 37.5 30 37.5C31.9891 37.5 33.8968 36.7098 35.3033 35.3033C36.7098 33.8968 37.5 31.9891 37.5 30C37.5 28.0109 36.7098 26.1032 35.3033 24.6967C33.8968 23.2902 31.9891 22.5 30 22.5ZM30 5L35.975 13.55C34.125 12.875 32.1 12.5 30 12.5C27.9 12.5 25.875 12.875 24.025 13.55L30 5ZM8.35 17.5L18.75 16.625C17.1984 17.9356 15.8798 19.4993 14.85 21.25C13.75 23.1 13.125 25 12.775 26.975L8.35 17.5ZM8.4 42.5L12.8 33.075C13.5349 37.1063 15.6361 40.7613 18.75 43.425L8.4 42.5ZM51.625 17.5L47.2 26.975C46.492 22.9269 44.3864 19.2554 41.25 16.6L51.625 17.5M51.6 42.5L41.25 43.4C42.725 42.125 44.05 40.55 45.1 38.75C46.15 36.925 46.825 35 47.175 33.025L51.6 42.5M30 55L23.975 46.4C25.825 47.075 27.85 47.5 30 47.5C32.05 47.5 34.075 47.075 35.925 46.4L30 55Z" fill="white"/>
</svg>
