<svg width="60" height="60" viewBox="0 0 60 60" fill="none" xmlns="http://www.w3.org/2000/svg">
<path d="M26.25 50C24.0975 50 21.975 49.6225 19.9425 48.8725L16.65 47.66L18.875 44.9425C22.0625 41.0425 23.75 36.3075 23.75 31.25C23.75 26.1925 22.0625 21.4575 18.8725 17.5575L16.6475 14.84L19.94 13.6275C21.96 12.8811 24.0965 12.4993 26.25 12.5C36.59 12.5 45 20.91 45 31.25C45 41.59 36.59 50 26.25 50ZM24.9775 44.94C26.8816 45.1143 28.8012 44.8901 30.6138 44.2816C32.4265 43.6731 34.0926 42.6937 35.5058 41.4057C36.9191 40.1178 38.0486 38.5497 38.8224 36.8011C39.5961 35.0526 39.9972 33.1621 40 31.25C39.9972 29.3379 39.5961 27.4474 38.8224 25.6989C38.0486 23.9503 36.9191 22.3822 35.5058 21.0942C34.0926 19.8063 32.4265 18.8269 30.6138 18.2184C28.8012 17.6099 26.8816 17.3857 24.9775 17.56C27.455 21.6725 28.75 26.3375 28.75 31.25C28.75 36.1625 27.455 40.8275 24.9775 44.94Z" fill="black"/>
</svg>
