<svg width="60" height="60" viewBox="0 0 60 60" fill="none" xmlns="http://www.w3.org/2000/svg">
<path d="M31.85 13.675C37.75 16.25 40.875 22.575 39.8 28.65C41.4307 30.0577 42.7392 31.8 43.6365 33.7585C44.5338 35.717 44.9988 37.8457 45 40V40.425C45.8032 40.1425 46.6486 39.9987 47.5 40C49.4891 40 51.3968 40.7902 52.8033 42.1967C54.2098 43.6032 55 45.5109 55 47.5C55 49.4891 54.2098 51.3968 52.8033 52.8033C51.3968 54.2098 49.4891 55 47.5 55H15C12.3478 55 9.8043 53.9464 7.92893 52.0711C6.05357 50.1957 5 47.6522 5 45C5 42.3478 6.05357 39.8043 7.92893 37.9289C9.8043 36.0536 12.3478 35 15 35H15.675C12.5 31.125 11.5 25.6 13.75 20.65C15.2271 17.3265 17.963 14.7251 21.3568 13.4173C24.7505 12.1095 28.5246 12.2022 31.85 13.675M29.825 18.25C25.4 16.25 20.225 18.275 18.275 22.675C17.125 25.225 17.325 28.05 18.525 30.325C19.9331 28.6536 21.69 27.3108 23.6724 26.3908C25.6548 25.4709 27.8146 24.9962 30 25C31.75 25 33.45 25.3 35 25.85C34.9259 24.2282 34.4028 22.6589 33.489 21.317C32.5753 19.975 31.3068 18.9133 29.825 18.25M33.875 9.1C32.5 8.5 31.125 8.075 29.7 7.8L35.925 4.55L38.175 11.775C36.8662 10.6972 35.4203 9.79764 33.875 9.1M15.225 11.1C14 11.975 12.925 12.975 12 14.075L12.275 7.05L19.675 8.75C18.125 9.275 16.625 10.075 15.225 11.1ZM45 24.275C44.775 22.8 44.45 21.375 43.975 20L49.925 23.75L44.8 29.325C45.075 27.7 45.125 26 45 24.275M7.6 28.25C7.775 29.75 8.1 31.175 8.575 32.5L2.65 28.75L7.75 23.2C7.5 24.825 7.425 26.525 7.6 28.25M47.5 45H40V40C40 37.3478 38.9464 34.8043 37.0711 32.9289C35.1957 31.0536 32.6522 30 30 30C27.3478 30 24.8043 31.0536 22.9289 32.9289C21.0536 34.8043 20 37.3478 20 40H15C13.6739 40 12.4021 40.5268 11.4645 41.4645C10.5268 42.4022 10 43.6739 10 45C10 46.3261 10.5268 47.5979 11.4645 48.5355C12.4021 49.4732 13.6739 50 15 50H47.5C48.163 50 48.7989 49.7366 49.2678 49.2678C49.7366 48.7989 50 48.163 50 47.5C50 46.837 49.7366 46.2011 49.2678 45.7322C48.7989 45.2634 48.163 45 47.5 45Z" fill="black"/>
</svg>
