<svg width="60" height="60" viewBox="0 0 60 60" fill="none" xmlns="http://www.w3.org/2000/svg">
<path d="M55 25.7C54.35 25.75 53.75 25.775 53.15 25.775C48.3 25.775 43.475 23.925 39.775 20.225C37.7862 18.2551 36.2626 15.8659 35.3154 13.2318C34.3681 10.5977 34.0212 7.78531 34.3 5C34.425 3.825 33.05 2.5 31.775 2.5C31.4272 2.49942 31.0873 2.60399 30.8 2.8C30 3.4 29.15 4.1 28.4 4.85C22.625 10.6 21.375 19.15 24.6 26.15C22.6923 26.9571 20.9925 28.1863 19.6284 29.7452C18.2644 31.3041 17.2717 33.152 16.725 35.15L15 35C12.3478 35 9.8043 36.0536 7.92893 37.9289C6.05357 39.8043 5 42.3478 5 45C5 47.6522 6.05357 50.1957 7.92893 52.0711C9.8043 53.9464 12.3478 55 15 55H47.5C49.4891 55 51.3968 54.2098 52.8033 52.8033C54.2098 51.3968 55 49.4891 55 47.5C55 45.5109 54.2098 43.6032 52.8033 42.1967C51.3968 40.7902 49.4891 40 47.5 40C46.05 40 44.7 40.4 43.55 41.125L43.75 38.75C43.75 38.2 43.75 37.625 43.65 37.075C48.0076 36.6582 52.0792 34.7197 55.15 31.6C55.95 30.85 56.6 30 57.2 29.2C58.175 27.825 56.625 25.7 55.1 25.7M47.5 45C48.163 45 48.7989 45.2634 49.2678 45.7322C49.7366 46.2011 50 46.837 50 47.5C50 48.163 49.7366 48.7989 49.2678 49.2678C48.7989 49.7366 48.163 50 47.5 50H15C13.6739 50 12.4021 49.4732 11.4645 48.5355C10.5268 47.5979 10 46.3261 10 45C10 43.6739 10.5268 42.4022 11.4645 41.4645C12.4021 40.5268 13.6739 40 15 40H21.25V38.75C21.25 34.85 23.825 31.6 27.35 30.45C27.75 30.325 28.15 30.225 28.575 30.15C29.025 30.075 29.5 30 30 30C30.575 30 31.125 30.075 31.65 30.175C31.825 30.2 32 30.25 32.175 30.325C32.5 30.4 32.875 30.5 33.2 30.625C33.4 30.7 33.6 30.8 33.75 30.9C34.075 31.025 34.35 31.175 34.6 31.35C34.8 31.475 35 31.6 35.175 31.75C35.425 31.925 35.625 32.1 35.85 32.3C36.025 32.5 36.25 32.625 36.375 32.8C36.575 33 36.725 33.225 36.9 33.425C37.05 33.625 37.225 33.825 37.35 34.05C37.5 34.275 37.6 34.5 37.725 34.75C37.85 35 38 35.2 38.1 35.45C38.525 36.475 38.75 37.575 38.75 38.75V45M42.075 32.15C40.8877 29.9855 39.1405 28.1799 37.0162 26.9221C34.892 25.6643 32.4687 25.0004 30 25H29.675C28.525 22.975 27.85 20.65 27.85 18.225C27.85 15.775 28.475 13.425 29.65 11.375C30.5365 16.0765 32.8395 20.3946 36.25 23.75C39.6019 27.1652 43.9215 29.469 48.625 30.35C46.65 31.5 44.4 32.1 42.075 32.15V32.15Z" fill="white"/>
</svg>
