<svg width="60" height="60" viewBox="0 0 60 60" fill="none" xmlns="http://www.w3.org/2000/svg">
<path d="M15 47.5C13.3585 47.5 11.733 47.1767 10.2165 46.5485C8.69989 45.9203 7.3219 44.9996 6.16117 43.8388C3.81696 41.4946 2.5 38.3152 2.5 35C2.5 31.6848 3.81696 28.5054 6.16117 26.1612C8.50537 23.817 11.6848 22.5 15 22.5C17.5 16.625 23.25 12.5 30 12.5C38.575 12.5 45.6 19.15 46.25 27.575L47.5 27.5C50.1522 27.5 52.6957 28.5536 54.5711 30.4289C56.4464 32.3043 57.5 34.8478 57.5 37.5C57.5 40.1522 56.4464 42.6957 54.5711 44.5711C52.6957 46.4464 50.1522 47.5 47.5 47.5H15ZM47.5 32.5H42.5V30C42.5 26.6848 41.183 23.5054 38.8388 21.1612C36.4946 18.817 33.3152 17.5 30 17.5C23.75 17.5 18.625 22.05 17.65 27.975C16.825 27.675 15.925 27.5 15 27.5C13.0109 27.5 11.1032 28.2902 9.6967 29.6967C8.29018 31.1032 7.5 33.0109 7.5 35C7.5 36.9891 8.29018 38.8968 9.6967 40.3033C11.1032 41.7098 13.0109 42.5 15 42.5H47.5C48.8261 42.5 50.0979 41.9732 51.0355 41.0355C51.9732 40.0979 52.5 38.8261 52.5 37.5C52.5 36.1739 51.9732 34.9021 51.0355 33.9645C50.0979 33.0268 48.8261 32.5 47.5 32.5Z" fill="white"/>
</svg>
