<svg width="48" height="48" viewBox="0 0 48 48" fill="none" xmlns="http://www.w3.org/2000/svg">
<rect x="9.12" y="18.72" width="28.8" height="9.6" rx="4.8" fill="#white"/>
<circle cx="14.88" cy="21.6" r="6.72" fill="white"/>
<circle cx="19.92" cy="13.2" r="8.4" fill="white"/>
<circle cx="28.32" cy="14.88" r="6.72" fill="white"/>
<path d="M7.20001 30.72H11.76H16.8V37.5082C16.8 39.0611 15.5411 40.32 13.9882 40.32V40.32C11.4832 40.32 10.2287 37.2913 12 35.52L16.8 30.72H7.20001Z" fill="#white"/>
<path d="M16.8 30.72H21.36H26.4V37.5082C26.4 39.0611 25.1411 40.32 23.5882 40.32V40.32C21.0832 40.32 19.8287 37.2913 21.6 35.52L26.4 30.72H16.8Z" fill="#white"/>
<path d="M26.4 30.72H30.96H36V37.5082C36 39.0611 34.7411 40.32 33.1882 40.32V40.32C30.6832 40.32 29.4287 37.2913 31.2 35.52L36 30.72H26.4Z" fill="#white"/>
</svg>
