<svg width="60" height="60" viewBox="0 0 60 60" fill="none" xmlns="http://www.w3.org/2000/svg">
<path d="M22.5 30C23.825 30.35 24.625 31.725 24.275 33.05L21.025 45.125C20.675 46.475 19.3 47.25 17.975 46.9C17.6571 46.8204 17.3587 46.6769 17.0979 46.4784C16.8372 46.2798 16.6195 46.0303 16.4582 45.7451C16.2968 45.4598 16.1952 45.1447 16.1594 44.8189C16.1236 44.4931 16.1544 44.1635 16.25 43.85L19.45 31.775C19.8 30.425 21.175 29.65 22.5 30M32.5 30C33.825 30.35 34.625 31.725 34.275 33.05L29.1 52.375C28.75 53.75 27.375 54.5 26.025 54.15C24.7 53.75 23.9 52.425 24.25 51.075L29.45 31.775C29.8 30.425 31.175 29.65 32.5 30ZM42.5 30C43.825 30.35 44.625 31.725 44.275 33.05L41.025 45.125C40.675 46.475 39.3 47.25 37.975 46.9C37.6571 46.8204 37.3587 46.6769 37.0979 46.4784C36.8372 46.2798 36.6195 46.0303 36.4582 45.7451C36.2968 45.4598 36.1952 45.1447 36.1594 44.8189C36.1236 44.4931 36.1544 44.1635 36.25 43.85L39.45 31.775C39.8 30.425 41.175 29.65 42.5 30M42.5 25V22.5C42.5 19.1848 41.183 16.0054 38.8388 13.6612C36.4946 11.317 33.3152 10 30 10C23.75 10 18.625 14.55 17.65 20.475C16.825 20.175 15.925 20 15 20C13.0109 20 11.1032 20.7902 9.6967 22.1967C8.29018 23.6032 7.5 25.5109 7.5 27.5C7.5 30.275 9 32.7 11.25 34V33.975C12.5 34.675 12.85 36.25 12.175 37.4C11.475 38.575 10 39 8.75 38.3V38.325C6.84638 37.2318 5.26564 35.6548 4.16803 33.7537C3.07042 31.8526 2.49496 29.6952 2.5 27.5C2.5 24.1848 3.81696 21.0054 6.16117 18.6612C8.50537 16.317 11.6848 15 15 15C17.5 9.125 23.25 5 30 5C38.575 5 45.6 11.65 46.25 20.075L47.5 20C50.1522 20 52.6957 21.0536 54.5711 22.9289C56.4464 24.8043 57.5 27.3478 57.5 30C57.5 33.75 55.5 36.925 52.5 38.65C51.25 39.325 49.775 38.925 49.075 37.725C48.4 36.525 48.75 35 50 34.3V34.325C51.5 33.475 52.5 31.85 52.5 30C52.5 28.6739 51.9732 27.4022 51.0355 26.4645C50.0978 25.5268 48.8261 25 47.5 25H42.5V25Z" fill="white"/>
</svg>
