<svg width="60" height="60" viewBox="0 0 60 60" fill="none" xmlns="http://www.w3.org/2000/svg">
<path d="M15 40C13.3585 40 11.733 39.6767 10.2165 39.0485C8.69989 38.4203 7.3219 37.4996 6.16117 36.3388C3.81696 33.9946 2.5 30.8152 2.5 27.5C2.5 24.1848 3.81696 21.0054 6.16117 18.6612C8.50537 16.317 11.6848 15 15 15C17.5 9.125 23.25 5 30 5C38.575 5 45.6 11.65 46.25 20.075L47.5 20C50.1522 20 52.6957 21.0536 54.5711 22.9289C56.4464 24.8043 57.5 27.3478 57.5 30C57.5 32.6522 56.4464 35.1957 54.5711 37.0711C52.6957 38.9464 50.1522 40 47.5 40H45C44.337 40 43.7011 39.7366 43.2322 39.2678C42.7634 38.7989 42.5 38.163 42.5 37.5C42.5 36.837 42.7634 36.2011 43.2322 35.7322C43.7011 35.2634 44.337 35 45 35H47.5C48.8261 35 50.0979 34.4732 51.0355 33.5355C51.9732 32.5979 52.5 31.3261 52.5 30C52.5 28.6739 51.9732 27.4021 51.0355 26.4645C50.0979 25.5268 48.8261 25 47.5 25H42.5V22.5C42.5 19.1848 41.183 16.0054 38.8388 13.6612C36.4946 11.317 33.3152 10 30 10C23.75 10 18.625 14.55 17.65 20.475C16.825 20.175 15.925 20 15 20C13.0109 20 11.1032 20.7902 9.6967 22.1967C8.29018 23.6032 7.5 25.5109 7.5 27.5C7.5 29.4891 8.29018 31.3968 9.6967 32.8033C11.1032 34.2098 13.0109 35 15 35H17.5C18.163 35 18.7989 35.2634 19.2678 35.7322C19.7366 36.2011 20 36.837 20 37.5C20 38.163 19.7366 38.7989 19.2678 39.2678C18.7989 39.7366 18.163 40 17.5 40H15ZM30 27.5H37.5L32.5 37.5H37.5L28.125 55L30 42.5H23.75L30 27.5Z" fill="white"/>
</svg>
