<svg width="60" height="60" viewBox="0 0 60 60" fill="none" xmlns="http://www.w3.org/2000/svg">
<path d="M16.25 47.5C15.375 47.5 14.6358 47.1975 14.0325 46.5925C13.4275 45.9892 13.125 45.25 13.125 44.375C13.125 43.5 13.4275 42.7608 14.0325 42.1575C14.6358 41.5525 15.375 41.25 16.25 41.25C17.125 41.25 17.865 41.5525 18.47 42.1575C19.0733 42.7608 19.375 43.5 19.375 44.375C19.375 45.25 19.0733 45.9892 18.47 46.5925C17.865 47.1975 17.125 47.5 16.25 47.5ZM23.75 55C22.875 55 22.1358 54.6975 21.5325 54.0925C20.9275 53.4892 20.625 52.75 20.625 51.875C20.625 51 20.9275 50.2608 21.5325 49.6575C22.1358 49.0525 22.875 48.75 23.75 48.75C24.625 48.75 25.3642 49.0525 25.9675 49.6575C26.5725 50.2608 26.875 51 26.875 51.875C26.875 52.75 26.5725 53.4892 25.9675 54.0925C25.3642 54.6975 24.625 55 23.75 55ZM31.25 47.5C30.375 47.5 29.6358 47.1975 29.0325 46.5925C28.4275 45.9892 28.125 45.25 28.125 44.375C28.125 43.5 28.4275 42.7608 29.0325 42.1575C29.6358 41.5525 30.375 41.25 31.25 41.25C32.125 41.25 32.8642 41.5525 33.4675 42.1575C34.0725 42.7608 34.375 43.5 34.375 44.375C34.375 45.25 34.0725 45.9892 33.4675 46.5925C32.8642 47.1975 32.125 47.5 31.25 47.5ZM46.25 47.5C45.375 47.5 44.6358 47.1975 44.0325 46.5925C43.4275 45.9892 43.125 45.25 43.125 44.375C43.125 43.5 43.4275 42.7608 44.0325 42.1575C44.6358 41.5525 45.375 41.25 46.25 41.25C47.125 41.25 47.865 41.5525 48.47 42.1575C49.0733 42.7608 49.375 43.5 49.375 44.375C49.375 45.25 49.0733 45.9892 48.47 46.5925C47.865 47.1975 47.125 47.5 46.25 47.5ZM38.75 55C37.875 55 37.1358 54.6975 36.5325 54.0925C35.9275 53.4892 35.625 52.75 35.625 51.875C35.625 51 35.9275 50.2608 36.5325 49.6575C37.1358 49.0525 37.875 48.75 38.75 48.75C39.625 48.75 40.365 49.0525 40.97 49.6575C41.5733 50.2608 41.875 51 41.875 51.875C41.875 52.75 41.5733 53.4892 40.97 54.0925C40.365 54.6975 39.625 55 38.75 55ZM18.75 37.5C14.9583 37.5 11.7192 36.1558 9.0325 33.4675C6.34417 30.7808 5 27.5417 5 23.75C5 20.2917 6.14583 17.2708 8.4375 14.6875C10.7292 12.1042 13.5625 10.5833 16.9375 10.125C18.2708 7.75 20.0942 5.885 22.4075 4.53C24.7192 3.17667 27.25 2.5 30 2.5C33.75 2.5 37.01 3.69833 39.78 6.095C42.5517 8.49 44.2292 11.4792 44.8125 15.0625C47.6875 15.3125 50.1042 16.5 52.0625 18.625C54.0208 20.75 55 23.2917 55 26.25C55 29.375 53.9067 32.0317 51.72 34.22C49.5317 36.4067 46.875 37.5 43.75 37.5H18.75ZM18.75 32.5H43.75C45.5 32.5 46.9792 31.8958 48.1875 30.6875C49.3958 29.4792 50 28 50 26.25C50 24.5 49.3958 23.0208 48.1875 21.8125C46.9792 20.6042 45.5 20 43.75 20H40V17.5C40 14.75 39.0208 12.3958 37.0625 10.4375C35.1042 8.47917 32.75 7.5 30 7.5C28 7.5 26.1767 8.04167 24.53 9.125C22.885 10.2083 21.6458 11.6667 20.8125 13.5L20.1875 15H18.625C16.25 15.0833 14.2192 15.9683 12.5325 17.655C10.8442 19.3433 10 21.375 10 23.75C10 26.1667 10.8542 28.2292 12.5625 29.9375C14.2708 31.6458 16.3333 32.5 18.75 32.5Z" fill="white"/>
</svg>
