<svg width="60" height="60" viewBox="0 0 60 60" fill="none" xmlns="http://www.w3.org/2000/svg">
<path d="M52.5 12.5H7.5C6.83696 12.5 6.20107 12.2366 5.73223 11.7678C5.26339 11.2989 5 10.663 5 10C5 9.33696 5.26339 8.70107 5.73223 8.23223C6.20107 7.76339 6.83696 7.5 7.5 7.5H52.5C53.163 7.5 53.7989 7.76339 54.2678 8.23223C54.7366 8.70107 55 9.33696 55 10C55 10.663 54.7366 11.2989 54.2678 11.7678C53.7989 12.2366 53.163 12.5 52.5 12.5ZM50 20C50 19.337 49.7366 18.7011 49.2678 18.2322C48.7989 17.7634 48.163 17.5 47.5 17.5H12.5C11.837 17.5 11.2011 17.7634 10.7322 18.2322C10.2634 18.7011 10 19.337 10 20C10 20.663 10.2634 21.2989 10.7322 21.7678C11.2011 22.2366 11.837 22.5 12.5 22.5H47.5C48.163 22.5 48.7989 22.2366 49.2678 21.7678C49.7366 21.2989 50 20.663 50 20M52.5 30C52.5 29.337 52.2366 28.7011 51.7678 28.2322C51.2989 27.7634 50.663 27.5 50 27.5H25C24.337 27.5 23.7011 27.7634 23.2322 28.2322C22.7634 28.7011 22.5 29.337 22.5 30C22.5 30.663 22.7634 31.2989 23.2322 31.7678C23.7011 32.2366 24.337 32.5 25 32.5H50C50.663 32.5 51.2989 32.2366 51.7678 31.7678C52.2366 31.2989 52.5 30.663 52.5 30ZM40 40C40 39.337 39.7366 38.7011 39.2678 38.2322C38.7989 37.7634 38.163 37.5 37.5 37.5H22.5C21.837 37.5 21.2011 37.7634 20.7322 38.2322C20.2634 38.7011 20 39.337 20 40C20 40.663 20.2634 41.2989 20.7322 41.7678C21.2011 42.2366 21.837 42.5 22.5 42.5H37.5C38.163 42.5 38.7989 42.2366 39.2678 41.7678C39.7366 41.2989 40 40.663 40 40ZM32.5 50C32.5 49.337 32.2366 48.7011 31.7678 48.2322C31.2989 47.7634 30.663 47.5 30 47.5H25C24.337 47.5 23.7011 47.7634 23.2322 48.2322C22.7634 48.7011 22.5 49.337 22.5 50C22.5 50.663 22.7634 51.2989 23.2322 51.7678C23.7011 52.2366 24.337 52.5 25 52.5H30C30.663 52.5 31.2989 52.2366 31.7678 51.7678C32.2366 51.2989 32.5 50.663 32.5 50Z" fill="white"/>
</svg>
