<svg enable-background="new 0 0 32 32" viewBox="0 0 32 32" xmlns="http://www.w3.org/2000/svg"><path d="m15.32 25.82c.064.111.064.248 0 .359l-2.31 4-.623-.359 1.998-3.46h-1.686c-.128 0-.248-.069-.312-.181-.064-.111-.064-.248 0-.359l2.31-4 .623.359-1.998 3.46h1.686c.128.001.247.07.312.181zm-13.339-20.173 1.338.773c.057.033.119.048.18.048.125 0 .246-.064.312-.18.099-.172.04-.393-.132-.492l-1.337-.773c-.173-.098-.393-.04-.492.132s-.04.393.131.492zm.924 4.023c0-.199-.161-.36-.36-.36h-1.545c-.199 0-.36.161-.36.36s.161.36.36.36h1.545c.199 0 .36-.161.36-.36zm1.516.36c.199 0 .36-.161.36-.36 0-2.696 2.193-4.89 4.89-4.89.682 0 1.12.035 1.623.226.186.071.394-.023.464-.208.071-.186-.022-.394-.208-.464-.665-.252-1.244-.273-1.878-.273-3.093 0-5.609 2.516-5.609 5.609-.002.199.159.36.358.36zm5.249-7.125c.199 0 .36-.161.36-.36v-1.545c0-.199-.161-.36-.36-.36s-.359.161-.359.36v1.545c0 .199.161.36.359.36zm-2.482 18.783c-.172-.101-.393-.041-.492.132l-2.31 4c-.1.172-.041.392.131.491.057.033.119.049.18.049.125 0 .246-.064.312-.181l2.309-4c.101-.171.042-.391-.13-.491zm-1.392-18.008c.067.115.188.18.312.18.061 0 .123-.015.18-.048.172-.1.231-.32.132-.492l-.773-1.339c-.099-.171-.32-.231-.492-.131s-.231.32-.132.492zm5.392 18.008c-.171-.101-.393-.041-.492.132l-2.31 4c-.1.172-.041.392.131.491.057.033.119.049.18.049.125 0 .246-.064.312-.181l2.309-4c.101-.171.042-.391-.13-.491zm20.172-6.93c0 3.089-2.514 5.603-5.603 5.603h-18.402c-2.601 0-4.716-2.127-4.716-4.742 0-2.614 2.115-4.741 4.716-4.741.644 0 1.283.133 1.874.388.609-3.812 3.88-6.625 7.81-6.625 3.176 0 5.982 1.84 7.241 4.717.486-.134.981-.201 1.478-.201 3.089-.001 5.602 2.512 5.602 5.601zm-.72 0c0-2.692-2.189-4.882-4.882-4.882-.527 0-1.056.088-1.568.263-.186.064-.382-.031-.452-.21-1.08-2.775-3.709-4.568-6.698-4.568-3.731 0-6.809 2.789-7.159 6.487-.012.122-.084.229-.192.286-.108.058-.237.054-.344-.007-.606-.346-1.294-.529-1.988-.529-2.204 0-3.996 1.804-3.996 4.021s1.792 4.021 3.996 4.021h18.402c2.691 0 4.881-2.19 4.881-4.882zm-17.587-10.946c.057.033.119.048.18.048.125 0 .246-.064.312-.18l.773-1.338c.099-.172.04-.393-.132-.492-.172-.1-.393-.04-.492.132l-.772 1.338c-.1.172-.041.392.131.492zm9.917 18.226c-.141-.141-.369-.141-.51 0l-.452.452-.452-.452c-.141-.141-.369-.141-.51 0s-.141.369 0 .51l.452.452-.452.452c-.141.141-.141.369 0 .51.07.07.163.105.255.105s.185-.035.255-.105l.452-.452.452.452c.07.07.163.105.255.105s.185-.035.255-.105c.141-.141.141-.369 0-.51l-.452-.452.452-.452c.14-.141.14-.369 0-.51zm3 4c-.141-.141-.369-.141-.51 0l-.452.452-.452-.452c-.141-.141-.369-.141-.51 0s-.141.369 0 .51l.452.452-.452.452c-.141.141-.141.369 0 .51.07.07.163.105.255.105s.185-.035.255-.105l.452-.452.452.452c.07.07.163.105.255.105s.185-.035.255-.105c.141-.141.141-.369 0-.51l-.452-.452.452-.452c.14-.141.14-.369 0-.51zm-5 0c-.141-.141-.369-.141-.51 0l-.452.452-.452-.452c-.141-.141-.369-.141-.51 0s-.141.369 0 .51l.452.452-.452.452c-.141.141-.141.369 0 .51.07.07.163.105.255.105s.185-.035.255-.105l.452-.452.452.452c.07.07.163.105.255.105s.185-.035.255-.105c.141-.141.141-.369 0-.51l-.452-.452.452-.452c.14-.141.14-.369 0-.51zm6.992-3.992c-.141-.141-.369-.141-.51 0l-.452.452-.452-.452c-.141-.141-.369-.141-.51 0s-.141.369 0 .51l.452.452-.452.452c-.141.141-.141.369 0 .51.07.07.163.105.255.105s.185-.035.255-.105l.452-.452.452.452c.07.07.163.105.255.105s.185-.035.255-.105c.141-.141.141-.369 0-.51l-.452-.452.452-.452c.141-.141.141-.369 0-.51z"/><path d="m0 0h32v32h-32z" fill="none"/></svg>