<svg width="48" height="48" viewBox="0 0 48 48" fill="none" xmlns="http://www.w3.org/2000/svg">
<rect x="8.64" y="18.72" width="28.8" height="9.6" rx="4.8" fill="#BAD7FF"/>
<circle cx="14.4" cy="21.6" r="6.72" fill="#BAD7FF"/>
<circle cx="19.44" cy="13.2001" r="8.4" fill="#BAD7FF"/>
<circle cx="27.84" cy="14.88" r="6.72" fill="#BAD7FF"/>
<path d="M7.20001 30.72H11.76H16.8V37.5082C16.8 39.0611 15.5411 40.32 13.9882 40.32V40.32C11.4832 40.32 10.2287 37.2913 12 35.52L16.8 30.72H7.20001Z" fill="#BAD7FF"/>
<path d="M26.4 30.72H30.96H36V37.5082C36 39.0611 34.7411 40.32 33.1882 40.32V40.32C30.6832 40.32 29.4287 37.2913 31.2 35.52L36 30.72H26.4Z" fill="#BAD7FF"/>
<path d="M23.2967 30.72H26.0539L23.8772 37.9758H21.12L23.2967 30.72Z" fill="#FFDA7A"/>
<path d="M24.6028 34.493H27.6502L22.426 43.2L24.6028 34.493Z" fill="#FFDA7A"/>
</svg>
